<svg xmlns="http://www.w3.org/2000/svg" xmlns:xlink="http://www.w3.org/1999/xlink" width="3625" height="1280" viewBox="0 0 3625 1280">
  <defs>
    <style>
      .cls-1 {
        fill: #303030;
        stroke-width: 30px;
      }

      .cls-1, .cls-4 {
        stroke: #00fff0;
      }

      .cls-2 {
        fill: #212121;
      }

      .cls-3, .cls-4, .cls-5 {
        fill: #fff;
      }

      .cls-3, .cls-5 {
        stroke: #ff26a5;
      }

      .cls-3, .cls-4 {
        stroke-width: 15px;
      }

      .cls-3 {
        font-size: 901px;
        font-family: FreestyleScript-Regular, Freestyle Script;
      }

      .cls-4 {
        font-size: 560px;
      }

      .cls-4, .cls-5 {
        font-family: SegoeUI, Segoe UI;
      }

      .cls-5 {
        stroke-width: 10px;
        font-size: 374px;
      }

      .cls-6 {
        fill: #00fff0;
      }

      .cls-7, .cls-9 {
        stroke: none;
      }

      .cls-8 {
        fill: none;
      }

      .cls-9 {
        fill: #ff26a5;
      }

      .cls-10 {
        filter: url(#Trazado_4);
      }

      .cls-11 {
        filter: url(#Rect치ngulo_1);
      }
    </style>
    <filter id="Rect치ngulo_1" x="578" y="254" width="3047" height="770" filterUnits="userSpaceOnUse">
      <feOffset input="SourceAlpha"/>
      <feGaussianBlur stdDeviation="15" result="blur"/>
      <feFlood flood-opacity="0.161"/>
      <feComposite operator="in" in2="blur"/>
      <feComposite in="SourceGraphic"/>
    </filter>
    <filter id="Trazado_4" x="0" y="0" width="1280" height="1280" filterUnits="userSpaceOnUse">
      <feOffset input="SourceAlpha"/>
      <feGaussianBlur stdDeviation="30" result="blur-2"/>
      <feFlood flood-opacity="0.161"/>
      <feComposite operator="in" in2="blur-2"/>
      <feComposite in="SourceGraphic"/>
    </filter>
  </defs>
  <g id="darkLogo" transform="translate(60 90)">
    <g class="cls-11" transform="matrix(1, 0, 0, 1, -60, -90)">
      <g id="Rect치ngulo_1-2" data-name="Rect치ngulo 1" class="cls-1" transform="translate(623 299)">
        <rect class="cls-7" width="2957" height="680" rx="326"/>
        <rect class="cls-8" x="15" y="15" width="2927" height="650" rx="311"/>
      </g>
    </g>
    <g class="cls-10" transform="matrix(1, 0, 0, 1, -60, -90)">
      <g id="Trazado_4-2" data-name="Trazado 4" class="cls-2" transform="translate(90 90)">
        <path class="cls-7" d="M 550 1085 C 255 1085 15 845 15 550 C 15 255 255 15 550 15 C 845 15 1085 255 1085 550 C 1085 845 845 1085 550 1085 Z"/>
        <path class="cls-9" d="M 550 30 C 263.27099609375 30 30 263.27099609375 30 550 C 30 836.72900390625 263.27099609375 1070 550 1070 C 836.72900390625 1070 1070 836.72900390625 1070 550 C 1070 263.27099609375 836.72900390625 30 550 30 M 550 0 C 853.7564697265625 0 1100 246.2433471679688 1100 550 C 1100 853.7564697265625 853.7564697265625 1100 550 1100 C 246.2433471679688 1100 0 853.7564697265625 0 550 C 0 246.2433471679688 246.2433471679688 0 550 0 Z"/>
      </g>
    </g>
    <text id="K" class="cls-3" transform="translate(250 833)"><tspan x="0" y="0">K</tspan></text>
    <text id="RISSTAL" class="cls-4" transform="translate(669 780)"><tspan x="0" y="0">RISSTAL</tspan></text>
    <text id="NET." class="cls-5" transform="translate(2643 382)"><tspan x="0" y="404">NET.</tspan></text>
    <g id="penacho" transform="translate(0 -32)">
      <path id="Trazado_1" data-name="Trazado 1" class="cls-6" d="M1691.711-446.957c231.68-212.053,219.9-20.944,219.9-20.944Z" transform="matrix(0.996, 0.087, -0.087, 0.996, 1382.558, 821.086)"/>
      <path id="Trazado_2" data-name="Trazado 2" class="cls-6" d="M1691.711-446.957c231.68-212.053,219.9-20.944,219.9-20.944Z" transform="matrix(0.819, -0.574, 0.574, 0.819, 1958.54, 1859.605)"/>
      <path id="Trazado_3" data-name="Trazado 3" class="cls-6" d="M1691.711-446.957c231.68-212.053,219.9-20.944,219.9-20.944Z" transform="matrix(0.259, -0.966, 0.966, 0.259, 3066, 2272.946)"/>
    </g>
  </g>
</svg>
