<svg xmlns="http://www.w3.org/2000/svg" xmlns:xlink="http://www.w3.org/1999/xlink" width="3635" height="1280" viewBox="0 0 3635 1280">
  <defs>
    <style>
      .cls-1, .cls-3 {
        fill: #fff;
      }

      .cls-2 {
        fill: #ff26a5;
      }

      .cls-3 {
        font-size: 901px;
        font-family: FreestyleScript-Regular, Freestyle Script;
      }

      .cls-4, .cls-6 {
        fill: #00fff0;
      }

      .cls-4 {
        font-size: 560px;
        font-family: SegoeUI, Segoe UI;
      }

      .cls-5 {
        fill: #ff0095;
        font-size: 374px;
      }

      .cls-7 {
        filter: url(#Elipse_1);
      }

      .cls-8 {
        filter: url(#Rect치ngulo_1);
      }
    </style>
    <filter id="Rect치ngulo_1" x="588" y="255" width="3047" height="770" filterUnits="userSpaceOnUse">
      <feOffset input="SourceAlpha"/>
      <feGaussianBlur stdDeviation="15" result="blur"/>
      <feFlood flood-opacity="0.161"/>
      <feComposite operator="in" in2="blur"/>
      <feComposite in="SourceGraphic"/>
    </filter>
    <filter id="Elipse_1" x="0" y="0" width="1280" height="1280" filterUnits="userSpaceOnUse">
      <feOffset input="SourceAlpha"/>
      <feGaussianBlur stdDeviation="30" result="blur-2"/>
      <feFlood flood-opacity="0.161"/>
      <feComposite operator="in" in2="blur-2"/>
      <feComposite in="SourceGraphic"/>
    </filter>
  </defs>
  <g id="Logo" transform="translate(60 90)">
    <g class="cls-8" transform="matrix(1, 0, 0, 1, -60, -90)">
      <rect id="Rect치ngulo_1-2" data-name="Rect치ngulo 1" class="cls-1" width="2957" height="680" rx="326" transform="translate(633 300)"/>
    </g>
    <g class="cls-7" transform="matrix(1, 0, 0, 1, -60, -90)">
      <circle id="Elipse_1-2" data-name="Elipse 1" class="cls-2" cx="550" cy="550" r="550" transform="translate(90 90)"/>
    </g>
    <text id="K" class="cls-3" transform="translate(250 833)"><tspan x="0" y="0">K</tspan></text>
    <text id="RISSTALNET." class="cls-4" transform="translate(669 780)"><tspan x="0" y="0">RISSTAL</tspan><tspan class="cls-5" y="0">NET.</tspan></text>
    <g id="penacho" transform="translate(0 -32)">
      <path id="Trazado_1" data-name="Trazado 1" class="cls-6" d="M1691.711-446.957c231.68-212.053,219.9-20.944,219.9-20.944Z" transform="matrix(0.996, 0.087, -0.087, 0.996, 1382.558, 821.086)"/>
      <path id="Trazado_2" data-name="Trazado 2" class="cls-6" d="M1691.711-446.957c231.68-212.053,219.9-20.944,219.9-20.944Z" transform="matrix(0.819, -0.574, 0.574, 0.819, 1958.54, 1859.605)"/>
      <path id="Trazado_3" data-name="Trazado 3" class="cls-6" d="M1691.711-446.957c231.68-212.053,219.9-20.944,219.9-20.944Z" transform="matrix(0.259, -0.966, 0.966, 0.259, 3066, 2272.946)"/>
    </g>
  </g>
</svg>
