<svg xmlns="http://www.w3.org/2000/svg" xmlns:xlink="http://www.w3.org/1999/xlink" width="395" height="340.29" viewBox="0 0 395 340.29">
  <defs>
    <style>
      .cls-1 {
        fill: #ff26a5;
      }

      .cls-2, .cls-4 {
        fill: #fff;
      }

      .cls-2 {
        font-size: 185px;
        font-family: FreestyleScript-Regular, Freestyle Script;
      }

      .cls-3 {
        fill: #00fff0;
      }

      .cls-5 {
        filter: url(#Elipse_3);
      }

      .cls-6 {
        filter: url(#Elipse_2);
      }
    </style>
    <filter id="Elipse_2" x="0" y="0" width="297.568" height="297.568" filterUnits="userSpaceOnUse">
      <feOffset input="SourceAlpha"/>
      <feGaussianBlur stdDeviation="15" result="blur"/>
      <feFlood flood-opacity="0.161"/>
      <feComposite operator="in" in2="blur"/>
      <feComposite in="SourceGraphic"/>
    </filter>
    <filter id="Elipse_3" x="94.871" y="40.161" width="300.129" height="300.129" filterUnits="userSpaceOnUse">
      <feOffset input="SourceAlpha"/>
      <feGaussianBlur stdDeviation="30" result="blur-2"/>
      <feFlood flood-opacity="0.161"/>
      <feComposite operator="in" in2="blur-2"/>
      <feComposite in="SourceGraphic"/>
    </filter>
  </defs>
  <g id="miniLogoX260" transform="translate(-90.75 1431.75)">
    <g id="Grupo_1" data-name="Grupo 1" transform="translate(135.75 -1386.75)">
      <g class="cls-6" transform="matrix(1, 0, 0, 1, -45, -45)">
        <circle id="Elipse_2-2" data-name="Elipse 2" class="cls-1" cx="103.784" cy="103.784" r="103.784" transform="translate(45 45)"/>
      </g>
      <text id="K" class="cls-2" transform="translate(45.984 166.625)"><tspan x="0" y="0">K</tspan></text>
    </g>
    <g id="Grupo_2" data-name="Grupo 2" transform="translate(275.621 -1301.589)">
      <g class="cls-5" transform="matrix(1, 0, 0, 1, -184.87, -130.16)">
        <circle id="Elipse_3-2" data-name="Elipse 3" class="cls-3" cx="60.064" cy="60.064" r="60.064" transform="translate(184.87 130.16)"/>
      </g>
      <g id="penacho" transform="translate(24.2 34.006)">
        <path id="Trazado_1" data-name="Trazado 1" class="cls-4" d="M0,19.991C46.315-22.4,43.96,15.8,43.96,15.8Z" transform="matrix(0.996, 0.087, -0.087, 0.996, 27.982, 27.756)"/>
        <path id="Trazado_2" data-name="Trazado 2" class="cls-4" d="M0,19.991C46.315-22.4,43.96,15.8,43.96,15.8Z" transform="matrix(0.819, -0.574, 0.574, 0.819, 11.007, 31.271)"/>
        <path id="Trazado_3" data-name="Trazado 3" class="cls-4" d="M0,19.991C46.315-22.4,43.96,15.8,43.96,15.8Z" transform="matrix(0.259, -0.966, 0.966, 0.259, 0, 42.481)"/>
      </g>
    </g>
  </g>
</svg>
